<svg xmlns="http://www.w3.org/2000/svg" viewBox="0 0 458.01 479.83"><defs><style>.cls-1{opacity:0.25;}.cls-2,.cls-3{fill:#1d4ed8;}.cls-3{opacity:0.7;}.cls-4{opacity:0.13;}.cls-5{fill:#bfbfbf;}.cls-10,.cls-11,.cls-12,.cls-14,.cls-5,.cls-6,.cls-7,.cls-8,.cls-9{stroke:#263238;stroke-linecap:round;stroke-linejoin:round;}.cls-6{fill:#263238;}.cls-7{fill:#fff;}.cls-13,.cls-8{fill:#92e3a9;}.cls-9{fill:#8c8c8c;}.cls-10,.cls-14{fill:none;}.cls-11{fill:#545454;}.cls-12{fill:#595959;}.cls-14{stroke-width:2px;}</style></defs><g id="Background_Simple" data-name="Background Simple"><g class="cls-1"><path class="cls-2" d="M311.74,39.89s-78.57-24.38-150,23.1S59.6,199.85,32.76,271.53,30.35,413.85,90.18,443.91s94.87-19.69,174.94-25.57S367.71,423.23,430.59,374,496.72,214.69,437.68,136,311.74,39.89,311.74,39.89Z" transform="translate(-21.92 -6.77)"/><path class="cls-3" d="M311.74,39.89s-78.57-24.38-150,23.1S59.6,199.85,32.76,271.53,30.35,413.85,90.18,443.91s94.87-19.69,174.94-25.57S367.71,423.23,430.59,374,496.72,214.69,437.68,136,311.74,39.89,311.74,39.89Z" transform="translate(-21.92 -6.77)"/></g></g><g id="Graphics"><g class="cls-4"><path d="M252.34,449.44l-15-56L233,451.26a9.87,9.87,0,0,0,9.88,10.59h0A9.86,9.86,0,0,0,252.34,449.44Z" transform="translate(-21.92 -6.77)"/><path d="M172.56,447.27l4.61-56.74-26,50.65a11.32,11.32,0,0,0,6.93,16.06h0A11.33,11.33,0,0,0,172.56,447.27Z" transform="translate(-21.92 -6.77)"/><path d="M92.61,415.83c8.7-12.95,22.39-33.78,22.39-33.78L79.05,400.61a10.52,10.52,0,0,0-2.29,17.1h0A10.52,10.52,0,0,0,92.61,415.83Z" transform="translate(-21.92 -6.77)"/><path d="M36.49,206c15.29,3.06,39.78,7.71,39.78,7.71L45.33,187.64a10.53,10.53,0,0,0-16.67,4.45h0A10.52,10.52,0,0,0,36.49,206Z" transform="translate(-21.92 -6.77)"/><path d="M51.38,100.43C60.45,105.62,75,113.77,75,113.77L60.9,90.64a7,7,0,0,0-11.54-.71h0A7,7,0,0,0,51.38,100.43Z" transform="translate(-21.92 -6.77)"/><path d="M63.5,350l36.2-22.27-42.36,3.54A10.13,10.13,0,0,0,48.72,345h0A10.14,10.14,0,0,0,63.5,350Z" transform="translate(-21.92 -6.77)"/><path d="M99,357.18a6.4,6.4,0,1,1,4.68,7.74A6.39,6.39,0,0,1,99,357.18Z" transform="translate(-21.92 -6.77)"/><path d="M109.44,429.57a6.4,6.4,0,1,1,4.67,7.74A6.39,6.39,0,0,1,109.44,429.57Z" transform="translate(-21.92 -6.77)"/><circle cx="16.54" cy="382.22" r="11.83"/><path d="M197.66,424.36a6.4,6.4,0,1,1,4.68,7.74A6.39,6.39,0,0,1,197.66,424.36Z" transform="translate(-21.92 -6.77)"/><path d="M36.52,306.18a9.59,9.59,0,1,1,7,11.61A9.59,9.59,0,0,1,36.52,306.18Z" transform="translate(-21.92 -6.77)"/><path d="M97.1,84l51.1,27.35L109,68.65a9.85,9.85,0,0,0-14.47,0h0A9.85,9.85,0,0,0,97.1,84Z" transform="translate(-21.92 -6.77)"/><path d="M175,44.79,218.05,82,192.52,31.14a11.33,11.33,0,0,0-17.05-3.89h0A11.33,11.33,0,0,0,175,44.79Z" transform="translate(-21.92 -6.77)"/><path d="M255.59,20.87c5.31,14.67,14,38,14,38l6.26-40A10.53,10.53,0,0,0,263.43,7h0A10.51,10.51,0,0,0,255.59,20.87Z" transform="translate(-21.92 -6.77)"/><path d="M434,98.07c-6.22,14.3-15.95,37.25-15.95,37.25l32-24.72a10.53,10.53,0,0,0-.83-17.24h0A10.52,10.52,0,0,0,434,98.07Z" transform="translate(-21.92 -6.77)"/><path d="M310.75,65.12l-5.07,42.19L329.25,72a10.14,10.14,0,0,0-5.39-15.29h0A10.14,10.14,0,0,0,310.75,65.12Z" transform="translate(-21.92 -6.77)"/><path d="M282.32,67.42a6.4,6.4,0,1,1-7.52-5A6.4,6.4,0,0,1,282.32,67.42Z" transform="translate(-21.92 -6.77)"/><path d="M188.63,117.65a6.4,6.4,0,1,1-9-.8A6.39,6.39,0,0,1,188.63,117.65Z" transform="translate(-21.92 -6.77)"/><path d="M74.39,140.7a11.83,11.83,0,1,1-13.91-9.3A11.84,11.84,0,0,1,74.39,140.7Z" transform="translate(-21.92 -6.77)"/><path d="M164.47,48.49a6.4,6.4,0,1,1-7.52-5A6.4,6.4,0,0,1,164.47,48.49Z" transform="translate(-21.92 -6.77)"/><path d="M361.18,36.37a9.59,9.59,0,1,1-13.45-1.73A9.59,9.59,0,0,1,361.18,36.37Z" transform="translate(-21.92 -6.77)"/></g></g><g id="Shopping_Cart" data-name="Shopping Cart"><path class="cls-5" d="M172.59,352.05a2.71,2.71,0,0,0,.73-.39l151.3-114.53,97.52-15.91a2.75,2.75,0,0,0-.89-5.42l-98.18,16a2.88,2.88,0,0,0-1.22.52L170,347.28a2.74,2.74,0,0,0,2.58,4.77Z" transform="translate(-21.92 -6.77)"/><path class="cls-5" d="M334.47,341.29a1.38,1.38,0,0,0,.89-1.48l-13.75-121a9.69,9.69,0,0,1,4.3-9.41l8.86-5.74a1.37,1.37,0,1,0-1.5-2.3l-8.85,5.74a12.44,12.44,0,0,0-5.53,12.08l13.76,121a1.37,1.37,0,0,0,1.54,1.18Z" transform="translate(-21.92 -6.77)"/><path class="cls-5" d="M192.2,371.86a1.8,1.8,0,0,0,.4-.23l132.78-103.9L424,256.37a1.37,1.37,0,0,0,1.28-1.46,1.38,1.38,0,0,0-1.47-1.27l-99,11.38a1.44,1.44,0,0,0-.77.3L190.87,369.5a1.37,1.37,0,0,0,1.33,2.36Z" transform="translate(-21.92 -6.77)"/><path class="cls-5" d="M215.38,400.4a1.34,1.34,0,0,0,.4-.23L330,305.11l97.64-3.95a1.37,1.37,0,0,0-.2-2.74l-98.06,4a1.31,1.31,0,0,0-.76.3L214.06,398a1.37,1.37,0,0,0-.21,1.93A1.39,1.39,0,0,0,215.38,400.4Z" transform="translate(-21.92 -6.77)"/><path class="cls-5" d="M393.55,226l2.71-.45,12,112.07a1.37,1.37,0,0,1-.9,1.46,1.32,1.32,0,0,1-.3.07,1.38,1.38,0,0,1-1.53-1.2Z" transform="translate(-21.92 -6.77)"/><path class="cls-5" d="M364,230.8l2.71-.44,9.56,107.89a1.38,1.38,0,0,1-2.73.34Z" transform="translate(-21.92 -6.77)"/><path class="cls-5" d="M339.15,234.84l2.71-.44,9.28,105a1.37,1.37,0,0,1-.9,1.46,1,1,0,0,1-.29.07,1.36,1.36,0,0,1-1.53-1.19Z" transform="translate(-21.92 -6.77)"/><path class="cls-5" d="M229.08,309.45h0l47,76a1.37,1.37,0,0,1-.38,1.9,1.4,1.4,0,0,1-.3.15,1.38,1.38,0,0,1-1.6-.53l-47-75.86Z" transform="translate(-21.92 -6.77)"/><path class="cls-5" d="M251.59,292.41a1.54,1.54,0,0,1,.36.4l41.48,78.63a1.36,1.36,0,0,1-.5,1.87l-.22.11a1.38,1.38,0,0,1-1.65-.61l-41.49-78.63a1.42,1.42,0,0,1-.08-.18Z" transform="translate(-21.92 -6.77)"/><path class="cls-5" d="M202.59,329.5h0l53.17,72.37a1.37,1.37,0,0,1-.26,1.92,1.48,1.48,0,0,1-.37.2,1.37,1.37,0,0,1-1.55-.46l-53.18-72.37v0Z" transform="translate(-21.92 -6.77)"/><path class="cls-5" d="M271.84,277.09a1.24,1.24,0,0,1,.25.35l37.65,81.65a1.37,1.37,0,0,1-.64,1.83L309,361a1.38,1.38,0,0,1-1.7-.7l-37.6-81.55Z" transform="translate(-21.92 -6.77)"/><path class="cls-5" d="M292,261.8l33.7,84.45A1.38,1.38,0,0,1,325,348h0a1.38,1.38,0,0,1-1.74-.79l-33.42-83.73Z" transform="translate(-21.92 -6.77)"/><path class="cls-5" d="M235.28,419a1.82,1.82,0,0,0,.51-.28l97.8-76.05,95.09-3.07a1.83,1.83,0,1,0-.12-3.65L332.88,339a1.89,1.89,0,0,0-1.07.39l-98.27,76.41a1.83,1.83,0,0,0,1.74,3.17Z" transform="translate(-21.92 -6.77)"/><path class="cls-5" d="M300.75,422a1.88,1.88,0,0,0,.5-.27L407.8,339.94a1.83,1.83,0,1,0-2.23-2.9L299,418.8a1.83,1.83,0,0,0,1.74,3.17Z" transform="translate(-21.92 -6.77)"/><path class="cls-5" d="M275.05,421.27a1.62,1.62,0,0,0,.53-.29l100.16-80.6a1.83,1.83,0,0,0-2.29-2.85l-100.17,80.6a1.83,1.83,0,0,0,1.77,3.14Z" transform="translate(-21.92 -6.77)"/><path class="cls-5" d="M253.12,419.44a1.91,1.91,0,0,0,.52-.29L351,341.72a1.83,1.83,0,1,0-2.27-2.86l-97.38,77.43a1.83,1.83,0,0,0,1.76,3.15Z" transform="translate(-21.92 -6.77)"/><path class="cls-6" d="M367.86,472.37C366.7,478.9,370.21,485,375.7,486s10.88-3.52,12.05-10-2.35-12.62-7.84-13.6S369,465.84,367.86,472.37Z" transform="translate(-21.92 -6.77)"/><path class="cls-7" d="M372.39,474.15c-.7,4,1.43,7.67,4.76,8.26s6.62-2.14,7.32-6.11-1.42-7.66-4.76-8.26S373.1,470.19,372.39,474.15Z" transform="translate(-21.92 -6.77)"/><path class="cls-7" d="M373.25,458l8.49,14a4.07,4.07,0,0,1-.23,4.6h0a4.1,4.1,0,0,1-5.22,1.15L360,469Z" transform="translate(-21.92 -6.77)"/><ellipse class="cls-6" cx="310.57" cy="468.44" rx="12.01" ry="10.1" transform="translate(-226.97 685.34) rotate(-79.91)"/><path class="cls-7" d="M305.15,468.45c-.7,4,1.43,7.67,4.77,8.26s6.61-2.14,7.31-6.11-1.42-7.66-4.76-8.25S305.86,464.49,305.15,468.45Z" transform="translate(-21.92 -6.77)"/><path class="cls-7" d="M306,452.28l8.49,14a4.09,4.09,0,0,1-.22,4.6h0a4.11,4.11,0,0,1-5.23,1.15l-16.31-8.75Z" transform="translate(-21.92 -6.77)"/><ellipse class="cls-6" cx="379.57" cy="417.29" rx="12.01" ry="10.1" transform="translate(-119.71 711.1) rotate(-79.91)"/><path class="cls-7" d="M374.16,417.31c-.7,4,1.43,7.66,4.76,8.26s6.62-2.14,7.32-6.11-1.42-7.66-4.76-8.26S374.87,413.34,374.16,417.31Z" transform="translate(-21.92 -6.77)"/><path class="cls-7" d="M375,401.14l8.49,14a4.11,4.11,0,0,1-.22,4.61h0a4.11,4.11,0,0,1-5.23,1.15l-16.31-8.75Z" transform="translate(-21.92 -6.77)"/><ellipse class="cls-6" cx="448.27" cy="418.48" rx="12.01" ry="10.1" transform="translate(-64.21 779.72) rotate(-79.91)"/><path class="cls-7" d="M442.86,418.5c-.7,4,1.43,7.66,4.76,8.26s6.62-2.14,7.32-6.11-1.42-7.67-4.76-8.26S443.57,414.53,442.86,418.5Z" transform="translate(-21.92 -6.77)"/><path class="cls-7" d="M443.72,402.33l8.49,14a4.09,4.09,0,0,1-.23,4.61h0a4.11,4.11,0,0,1-5.22,1.15l-16.31-8.76Z" transform="translate(-21.92 -6.77)"/><path class="cls-7" d="M352.33,475.42a18.63,18.63,0,0,0,5.16-2.84l93.23-72.65a11.38,11.38,0,0,0,.24-17.77l-36-30a2.75,2.75,0,0,0-3.36-.09L346,400.24a2.74,2.74,0,1,0,3.24,4.42l29.18-21.36a1.18,1.18,0,0,0,.11.19l.57.87a7.55,7.55,0,0,1-1.83,10.16l-91.13,67.54a4.61,4.61,0,0,0,2.25,8.29l55.61,6A18.54,18.54,0,0,0,352.33,475.42Zm60.19-117.94,35,28.92a5.89,5.89,0,0,1-.12,9.2l-93.23,72.65a13.1,13.1,0,0,1-9.52,2.7l-53.39-5.81,89.33-66.21a13,13,0,0,0,4.35-5.66,13.53,13.53,0,0,0-1.06-12.16l-.56-.87a3.43,3.43,0,0,0-.32-.41Z" transform="translate(-21.92 -6.77)"/><path class="cls-6" d="M379.11,384.36l-.68-1.06,4.52-3.47.88,1.28a13.76,13.76,0,0,1,1.81,5.41l-5.83,4.67A7.52,7.52,0,0,0,379.11,384.36Z" transform="translate(-21.92 -6.77)"/><path class="cls-6" d="M433.6,191.15a5.76,5.76,0,0,0,3.5-6.73,6,6,0,0,0-6.79-4.77l-92.73,18.16a5.7,5.7,0,0,0-4.28,6.94,6,6,0,0,0,6.79,4.78l92.73-18.16A6.39,6.39,0,0,0,433.6,191.15Z" transform="translate(-21.92 -6.77)"/><path class="cls-7" d="M418.79,223.33a1.37,1.37,0,0,0,.9-1.43l-1.87-18.59a9.59,9.59,0,0,1,4.42-9.11l12.51-7.95a1.37,1.37,0,0,0-1.47-2.31l-12.51,7.94a12.31,12.31,0,0,0-5.68,11.7l1.87,18.6a1.39,1.39,0,0,0,1.51,1.23A1.67,1.67,0,0,0,418.79,223.33Z" transform="translate(-21.92 -6.77)"/><path class="cls-7" d="M320.26,423a1.24,1.24,0,0,0,.36-.19l110.27-83.36a1.38,1.38,0,0,0,.54-1.23L419.69,221.9a1.37,1.37,0,0,0-2.73.28l11.66,115.58-109.27,82.6-84.69-3.1-62-68.71a1.37,1.37,0,1,0-2,1.84L233,419.53a1.38,1.38,0,0,0,1,.45l85.76,3.13A1.32,1.32,0,0,0,320.26,423Z" transform="translate(-21.92 -6.77)"/><path class="cls-7" d="M320.26,423a.71.71,0,0,0,.18-.08,1.36,1.36,0,0,0,.56-1.85l-43-80.75a1.38,1.38,0,0,0-2.43,1.29l43,80.75A1.37,1.37,0,0,0,320.26,423Z" transform="translate(-21.92 -6.77)"/><path class="cls-7" d="M298.27,422.06a.91.91,0,0,0,.26-.13A1.37,1.37,0,0,0,299,420l-47.35-75.7a1.37,1.37,0,1,0-2.32,1.46l47.34,75.7A1.36,1.36,0,0,0,298.27,422.06Z" transform="translate(-21.92 -6.77)"/><path class="cls-7" d="M273.76,421.61a1.68,1.68,0,0,0,.3-.15,1.38,1.38,0,0,0,.37-1.91l-48.88-72.44a1.37,1.37,0,0,0-2.27,1.53l48.88,72.45A1.37,1.37,0,0,0,273.76,421.61Z" transform="translate(-21.92 -6.77)"/><path class="cls-7" d="M251.86,419.83a1.55,1.55,0,0,0,.36-.19,1.37,1.37,0,0,0,.28-1.92l-52.86-70.63a1.37,1.37,0,1,0-2.2,1.64l52.86,70.63A1.38,1.38,0,0,0,251.86,419.83Z" transform="translate(-21.92 -6.77)"/><path class="cls-7" d="M338.85,407.07l.08,0a1.37,1.37,0,0,0,.72-1.8l-36.06-85.17a1.35,1.35,0,0,0-1.8-.73,1.37,1.37,0,0,0-.73,1.8l36.07,85.17A1.37,1.37,0,0,0,338.85,407.07Z" transform="translate(-21.92 -6.77)"/><path class="cls-7" d="M356.73,394.45a1.37,1.37,0,0,0,.83-1.73l-31.17-92a1.37,1.37,0,1,0-2.59.88l31.16,92a1.38,1.38,0,0,0,1.74.86Z" transform="translate(-21.92 -6.77)"/><path class="cls-7" d="M374.11,380.47a1.38,1.38,0,0,0,.84-1.7l-29-94.65a1.38,1.38,0,0,0-1.72-.91,1.36,1.36,0,0,0-.91,1.71l29.05,94.66a1.37,1.37,0,0,0,1.71.91Z" transform="translate(-21.92 -6.77)"/><path class="cls-7" d="M389.93,368.59a1.37,1.37,0,0,0,.86-1.63L365.33,268.3a1.37,1.37,0,0,0-2.66.69l25.46,98.65a1.39,1.39,0,0,0,1.67,1Z" transform="translate(-21.92 -6.77)"/><path class="cls-7" d="M404.75,358.23a1.37,1.37,0,0,0,.88-1.55l-20-106a1.37,1.37,0,0,0-2.7.51l20,106a1.38,1.38,0,0,0,1.61,1.1Z" transform="translate(-21.92 -6.77)"/><path class="cls-7" d="M418.17,347.21a1.37,1.37,0,0,0,.9-1.45l-13-111.25a1.37,1.37,0,0,0-2.72.32l13,111.25a1.38,1.38,0,0,0,1.53,1.21A1.47,1.47,0,0,0,418.17,347.21Z" transform="translate(-21.92 -6.77)"/><path class="cls-7" d="M291.63,370.35l.1,0c4.38-2,120.69-101.84,133.94-113.22a1.37,1.37,0,0,0-1.79-2.08c-35.66,30.63-129.12,110.62-133.3,112.81h0c-3.72,1.35-62.26,3.06-100.77,3.89a1.37,1.37,0,0,0-1.34,1.4,1.39,1.39,0,0,0,1.4,1.34C206,374.1,286.23,372.3,291.63,370.35Z" transform="translate(-21.92 -6.77)"/><path class="cls-7" d="M305.89,399.22c1.74-.62,88.07-70.4,125.11-100.37a1.37,1.37,0,1,0-1.73-2.13c-41.23,33.36-119.44,96.5-124.33,99.9-4.31.37-57.95-.14-93.59-.58a1.37,1.37,0,1,0,0,2.74C245.91,399.21,304.2,399.83,305.89,399.22Z" transform="translate(-21.92 -6.77)"/><path class="cls-7" d="M270.81,346.84a2.6,2.6,0,0,0,.82-.47L423.44,220.62a2.74,2.74,0,1,0-3.5-4.22L268.83,341.57l-97.31,5.16a2.74,2.74,0,0,0,.29,5.48L270,347A2.64,2.64,0,0,0,270.81,346.84Z" transform="translate(-21.92 -6.77)"/><path class="cls-7" d="M320.11,425.73a3.06,3.06,0,0,0,.82-.47l114.87-87.1a2.74,2.74,0,1,0-3.5-4.22L318.13,420.45l-88.62-5.72a2.74,2.74,0,0,0,.29,5.48l89.52,5.67A2.63,2.63,0,0,0,320.11,425.73Z" transform="translate(-21.92 -6.77)"/></g><g id="Gift_2" data-name="Gift 2"><polygon class="cls-7" points="89.41 35.15 55.76 55.64 117.03 65.26 147.93 44.5 89.41 35.15"/><polygon class="cls-8" points="72.69 45.43 130.87 56.05 133.81 53.92 75.96 43.63 72.69 45.43"/><polygon class="cls-7" points="117.03 65.26 122.1 121.98 151.98 97.17 147.93 44.5 117.03 65.26"/><polygon class="cls-8" points="133.81 53.92 140.25 106.58 137.14 109.69 130.87 56.05 133.81 53.92"/><polygon class="cls-7" points="55.76 55.64 61.83 110.84 122.1 121.98 117.03 65.26 55.76 55.64"/><polygon class="cls-8" points="111.71 38.82 82.15 59.83 85.71 60.54 114.93 39.37 111.71 38.82"/><polygon class="cls-8" points="82.15 59.83 87.57 115.51 90.98 116.19 85.71 60.54 82.15 59.83"/><path class="cls-8" d="M123.38,54.5s-18.26.5-23.87,1.36.62,4.28,3.34,5.71,3.77,1.12,8.56-1.24S123.38,54.5,123.38,54.5Z" transform="translate(-21.92 -6.77)"/><path class="cls-8" d="M121.62,53.66c-1.06.64.85,3.06,1.19,3.5a30.53,30.53,0,0,0,6,5.81,54.35,54.35,0,0,0,8.93,4.79l1.1.51c.12,0,.67.3,0,0s.1,0,.31.16c.77.41,1.53.85,2.27,1.32A24.8,24.8,0,0,1,145,72.58a17.86,17.86,0,0,1,4.85,7.34c1.93,6.15-.74,12.6-3.06,18.25-1.17,2.83-2.46,5.61-3.73,8.39-.43.92-.86,1.84-1.23,2.79a4.17,4.17,0,0,0-.42,1.58c0,.17,1.56.77,1.75.86a9.4,9.4,0,0,1,1.77.82c0-1.18.82-2.56,1.29-3.59,1-2.3,2.12-4.58,3.12-6.89A83.83,83.83,0,0,0,153,92.4a20.46,20.46,0,0,0,.85-8.51c-.81-5.92-5.47-10.56-10.48-13.37-1.47-.83-3-1.54-4.52-2.27l-2.45-1.15-.2-.1-.47-.25c-.49-.25-1-.51-1.44-.79a30,30,0,0,1-7-6c-.91-1-2.2-2.36-2.39-3.78,0-.27,0-.7.23-.87a9,9,0,0,1-1.75-.85c-.23-.11-1.55-1-1.77-.83Z" transform="translate(-21.92 -6.77)"/><path class="cls-6" d="M120.18,55.86s-12.33,3-13.48,4-1.13,2.59,0,2.55S120.18,55.86,120.18,55.86Z" transform="translate(-21.92 -6.77)"/><path class="cls-8" d="M123.76,53.64a21.32,21.32,0,0,0,5-3.26c3-2.5,5.65-4.29,7.32-3.79s6.17,3.41,5.57,4.2-1.72.47-4.91,1-11.4,2.34-11.4,2.34Z" transform="translate(-21.92 -6.77)"/><path class="cls-6" d="M141.63,50.79s-.27-1.54-2.73-1-13.58,4.37-13.58,4.37Z" transform="translate(-21.92 -6.77)"/><path class="cls-8" d="M121.85,56.67A91.38,91.38,0,0,0,118,45.73a55.35,55.35,0,0,0-4.09-8.41,6.46,6.46,0,0,0-6-3.38c-3.59.16-6.92,2-10.5,2.34-2.5.25-5-.37-7.46-.75a18.4,18.4,0,0,0-8.51.29,16.59,16.59,0,0,0-8,6.39c-4.59,6.35-7,15.14-14.68,18.59,0,0,1.56,3.56,1.59,3.55C72.34,59,72.38,38.64,87.56,38.72a57.63,57.63,0,0,1,7.63,1,19.59,19.59,0,0,0,8.42-.81c2.87-.82,6.17-2.15,9.08-.78,1.91.9,3,2.94,4,4.74.16.3.31.62.46.93.27.55.5,1.32-.57-1.28l.27.63c.28.67.55,1.35.8,2,.5,1.3,1,2.62,1.4,3.94s.86,2.68,1.25,4,1.24,2.33,1.59,3.56Z" transform="translate(-21.92 -6.77)"/><path class="cls-8" d="M119,54.43s1.51,1.46,2.25,1.43,5-1,4-1.75S120.78,53,119,54.43Z" transform="translate(-21.92 -6.77)"/></g><g id="Gift_3" data-name="Gift 3"><polygon class="cls-8" points="246.61 44.36 177.44 25.63 211.52 61.52 283.04 77.82 246.61 44.36"/><polygon class="cls-9" points="257.42 53.93 189.78 38.73 200.4 49.74 269.17 65.62 257.42 53.93"/><polygon class="cls-9" points="209.75 34.11 240.92 68.21 257.63 72.17 225.77 39.1 209.75 34.11"/><polygon class="cls-8" points="211.52 61.52 190.96 109.38 159.9 69.92 177.44 25.63 211.52 61.52"/><polygon class="cls-9" points="189.78 38.73 170.78 83.82 180.08 95.61 200.4 49.74 189.78 38.73"/><polygon class="cls-8" points="190.96 109.38 263.7 122.94 283.04 77.82 211.52 61.52 190.96 109.38"/><path class="cls-9" d="M248.21,51.55s-3.28-4.82-5.34-15-1.72-14.81-8.61-16.19c-2.42-.48-8.61,5.68-12.57,12.4s-.18,10.33,6.37,14.29,18.6,8.27,18.6,8.27Z" transform="translate(-21.92 -6.77)"/><path class="cls-9" d="M252.75,51s12.35-4.73,21.8-6.18,11.26-1.09,11.26-1.09,4.36,9.08,3.27,15.62a10.5,10.5,0,0,1-1.19,3.31,12.16,12.16,0,0,1-15.14,5.23l-23.34-12.4Z" transform="translate(-21.92 -6.77)"/><path class="cls-6" d="M285.81,43.75s-1.82-.36-11.26,1.09S252.75,51,252.75,51s23.35-2.57,27.66-4.29S285.81,43.75,285.81,43.75Z" transform="translate(-21.92 -6.77)"/><path class="cls-9" d="M248.39,58.28s-.54-5.36,2.74-3.28,21.12,1.48,24.63,3.44c7.41,4.13,14.81,13.78,15.33,14s-2.59.34-15.5,0S258,67.74,255.44,64.81A72,72,0,0,0,248.39,58.28Z" transform="translate(-21.92 -6.77)"/><path class="cls-10" d="M249.41,55.51A37.63,37.63,0,0,0,256.82,60" transform="translate(-21.92 -6.77)"/><path class="cls-9" d="M252.75,51s-5.08-.37-6.9,2.18,1.09,4.72,2.54,5.08S252.75,51,252.75,51Z" transform="translate(-21.92 -6.77)"/><path class="cls-11" d="M217.9,48.8s-6.2-1.55-9,.69-4.13,10.33-4.13,10.33S212,54,215.49,52.41a19.32,19.32,0,0,1,6-1.72Z" transform="translate(-21.92 -6.77)"/><path class="cls-9" d="M245.85,53.2a36.75,36.75,0,0,1-12.11-.79c-6.37-1.55-15.84-3.61-15.84-3.61s7.23,4.65,11.88,7.4,6.72,2.93,10.68,2.41a52.36,52.36,0,0,1,7.93-.33S249.52,55.36,245.85,53.2Z" transform="translate(-21.92 -6.77)"/><polygon class="cls-9" points="240.92 68.21 221.45 114.95 238.69 118.24 257.63 72.17 240.92 68.21"/></g><g id="Gift_1" data-name="Gift 1"><polygon class="cls-8" points="152.68 143.36 203.84 196.83 146.51 196.34 84.51 136.22 152.68 143.36"/><polygon class="cls-8" points="146.51 196.34 136.8 212.53 77.11 150.26 84.51 136.22 146.51 196.34"/><polygon class="cls-8" points="136.8 212.53 195.88 211.44 203.84 196.83 146.51 196.34 136.8 212.53"/><polygon class="cls-7" points="177.7 169.3 115.66 166.27 109.27 160.2 172.59 164.2 177.7 169.3"/><polygon class="cls-7" points="115.66 166.27 107.09 181.65 101.25 175.48 109.27 160.2 115.66 166.27"/><polygon class="cls-7" points="130.03 141.07 180.05 196.39 172.08 196.46 121.5 140.17 130.03 141.07"/><polygon class="cls-7" points="180.05 196.39 172.47 211.94 164.44 212 172.08 196.46 180.05 196.39"/></g><g id="Bag_3" data-name="Bag 3"><path class="cls-8" d="M83.82,222.4a4.31,4.31,0,0,1,2.05-.48,8.52,8.52,0,0,0-.12,1.86,2.24,2.24,0,0,0-1.06.22c-1.92,1.11.11,11.87,6.46,28,.4,1.06.84,2.13,1.3,3.23l-1.58,1.37c-.37-.91-.81-2-1.3-3.23-1.17-3-2.63-6.86-3.92-10.78C80.43,226.8,81.92,223.51,83.82,222.4Z" transform="translate(-21.92 -6.77)"/><path class="cls-8" d="M115.77,234.33l-1.58,1.25-2.66-1.47c-11.88-6.45-19.69-9.36-23.76-10.12a5.52,5.52,0,0,1,.11-1.92c6.57,1,17.93,6.71,25.21,10.66C114.36,233.42,114.8,233.78,115.77,234.33Z" transform="translate(-21.92 -6.77)"/><polygon class="cls-9" points="57.52 259.94 58.13 259.38 104.18 217.82 107.56 221.81 69.47 255.09 57.52 259.94"/><polygon class="cls-12" points="101.28 226.48 104.18 217.82 107.56 221.81 101.28 226.48"/><polygon class="cls-6" points="64.52 258.48 120.31 343.28 187.37 283.59 109.27 219.63 64.52 258.48"/><path class="cls-8" d="M122,234.33l-1.59,1.38c-1.24-.76-2.43-1.47-3.58-2.16C99.16,223.07,90,220.36,88.35,221.31a1.05,1.05,0,0,0-.47.76,5.52,5.52,0,0,0-.11,1.92c.27,4.54,3.19,14.37,8.81,27.54.48,1.15,1,2.32,1.53,3.52l-1.57,1.37c-.44-1-1-2.17-1.52-3.51-1.39-3.29-3.11-7.46-4.67-11.72-3.35-9.11-4.52-14.35-4.6-17.41a8.52,8.52,0,0,1,.12-1.86,3.08,3.08,0,0,1,1.49-2.36c4.34-2.45,21.18,6.76,31.07,12.61C119.78,233,121,233.7,122,234.33Z" transform="translate(-21.92 -6.77)"/><polygon class="cls-12" points="120.31 343.28 106.26 345.46 57.52 259.94 72.02 252.07 64.52 258.48 120.31 343.28"/><line class="cls-10" x1="106.26" y1="345.46" x2="110.33" y2="329.16"/></g><g id="Bag_2" data-name="Bag 2"><path class="cls-6" d="M240.2,208.61s-2.56-42.18-1.14-48.45L247.61,206Z" transform="translate(-21.92 -6.77)"/><path class="cls-6" d="M239.06,160.16s1.43-9.12,6.56-9.69,9.4,4,10,6.56a55.71,55.71,0,0,1,.86,6.27s-5.42-8.84-10-7.41S240.2,165,240.2,165Z" transform="translate(-21.92 -6.77)"/><path class="cls-6" d="M255.59,157l3.42,45,7.69-3.42S260.72,165.86,255.59,157Z" transform="translate(-21.92 -6.77)"/><polygon class="cls-7" points="207.51 202.53 251.08 186.78 253.14 205.72 235.11 214.85 207.51 202.53"/><polygon class="cls-7" points="251.08 186.78 280.06 189.52 252.22 199.79 251.08 186.78"/><path class="cls-13" d="M261.1,192.67l-11.8-14s-1.1,24.16-1.1,25,12.9-6.86,12.9-6.86Z" transform="translate(-21.92 -6.77)"/><polygon class="cls-13" points="212 204.57 207.34 178.77 233.41 191.67 243.57 204.57 222.71 212.8 212 204.57"/><polygon class="cls-13" points="228.2 198.53 236.44 176.29 261.02 164.79 257.77 204.82 226.83 205.39 228.2 198.53"/><polyline class="cls-13" points="253.14 205.72 253.46 203.88 258.39 175.75 280.9 179.86 275.96 194.96"/><polygon class="cls-7" points="207.51 202.53 201.9 318.19 218.79 316.51 235.11 323.26 234.54 206.2 207.51 202.53"/><path class="cls-13" d="M236,221.12c1.51,0,2.74,3.51,2.74,7.85s-1.23,7.84-2.74,7.84-2.75-3.51-2.75-7.84S234.49,221.12,236,221.12ZM246.4,253.7c0,4.34,1.23,7.85,2.75,7.85s2.74-3.51,2.74-7.85-1.23-7.84-2.74-7.84S246.4,249.37,246.4,253.7Zm-13.14,25.08c0,4.33,1.23,7.84,2.75,7.84s2.74-3.51,2.74-7.84-1.23-7.85-2.74-7.85S233.26,274.45,233.26,278.78Zm13.14,24.74c0,4.33,1.23,7.84,2.75,7.84s2.74-3.51,2.74-7.84-1.23-7.85-2.74-7.85S246.4,299.18,246.4,303.52Z" transform="translate(-21.92 -6.77)"/><line class="cls-10" x1="220.63" y1="241.38" x2="221.51" y2="205.67"/><line class="cls-10" x1="218.79" y1="316.51" x2="220.5" y2="246.91"/><polygon class="cls-7" points="235.11 323.26 300.39 287.8 280.06 189.52 234.54 206.2 235.11 323.26"/><path class="cls-13" d="M268.56,241.91c0,4.33-1.23,7.84-2.74,7.84s-2.75-3.51-2.75-7.84,1.23-7.85,2.75-7.85S268.56,237.58,268.56,241.91Z" transform="translate(-21.92 -6.77)"/><path class="cls-13" d="M268.17,283.88c0,4.33-1.23,7.84-2.75,7.84s-2.74-3.51-2.74-7.84,1.23-7.85,2.74-7.85S268.17,279.55,268.17,283.88Z" transform="translate(-21.92 -6.77)"/><ellipse class="cls-13" cx="275.14" cy="218.04" rx="2.75" ry="7.84"/><ellipse class="cls-13" cx="277.92" cy="260.62" rx="2.75" ry="7.84"/><ellipse class="cls-13" cx="257.77" cy="212.67" rx="2.75" ry="7.84"/><path class="cls-13" d="M284.64,260c0,4.33-1.23,7.85-2.74,7.85s-2.75-3.52-2.75-7.85,1.23-7.84,2.75-7.84S284.64,255.62,284.64,260Z" transform="translate(-21.92 -6.77)"/><ellipse class="cls-13" cx="292.92" cy="280.25" rx="2.75" ry="7.84"/><ellipse class="cls-13" cx="242.69" cy="308.5" rx="2.75" ry="7.84"/><ellipse class="cls-13" cx="285.45" cy="238" rx="2.75" ry="7.84"/><path class="cls-13" d="M287.78,301.53c0,4.33-1.23,7.84-2.74,7.84s-2.75-3.51-2.75-7.84,1.23-7.85,2.75-7.85S287.78,297.2,287.78,301.53Z" transform="translate(-21.92 -6.77)"/><path class="cls-6" d="M266.7,216.87s-2.56-42.18-1.14-48.44l8.55,45.88Z" transform="translate(-21.92 -6.77)"/><path class="cls-6" d="M265.56,168.43s1.43-9.12,6.56-9.69,9.4,4,10,6.55a56,56,0,0,1,.86,6.27s-5.42-8.83-10-7.41-6.27,9.12-6.27,9.12Z" transform="translate(-21.92 -6.77)"/><path class="cls-6" d="M282.09,165.29l3.42,45,7.7-3.42S287.22,174.12,282.09,165.29Z" transform="translate(-21.92 -6.77)"/></g><g id="Bag_1" data-name="Bag 1"><polygon class="cls-8" points="364.54 169.24 294.38 167.44 269.38 155.2 328.4 155.49 364.54 169.24"/><polygon class="cls-8" points="381.88 56.62 328.4 155.49 364.54 169.24 390.09 59.89 384.21 63.09 381.88 56.62"/><line class="cls-10" x1="384.21" y1="63.09" x2="347.05" y2="163.17"/><polygon class="cls-8" points="381.88 56.62 323.35 71.45 269.38 155.2 328.4 155.49 381.88 56.62"/><path class="cls-14" d="M378.82,73.42s13.7-21.66,6.39-26.17S360.15,69.46,359.34,77" transform="translate(-21.92 -6.77)"/><path class="cls-14" d="M389.37,67.54s8.29-13.35,13.88-10.83,1.45,10.37,1.45,10.37" transform="translate(-21.92 -6.77)"/></g></svg>